<svg xmlns="http://www.w3.org/2000/svg" viewBox="0 0 64 64" fill="none">
  <rect width="64" height="64" rx="12" fill="#2B463C"/>
  <g transform="translate(32,32) scale(0.42)" stroke="#B1D182" stroke-width="2.8" stroke-linecap="round" stroke-linejoin="round" fill="none">
    <!-- Center petal (top) -->
    <path d="M0,-38 C10,-30 12,-16 0,-4 C-12,-16 -10,-30 0,-38Z" fill="rgba(177,209,130,0.2)"/>
    <!-- Top-right petal -->
    <path d="M36.2,-11.8 C28.5,-7.5 15.5,-3.8 3.8,-3.8 C11.5,-15.5 24.5,-19.2 36.2,-11.8Z" fill="rgba(177,209,130,0.2)"/>
    <!-- Bottom-right petal -->
    <path d="M22.4,30.6 C15.5,24.5 9.5,13 3.8,3.8 C17,2 28.5,9.5 22.4,30.6Z" fill="rgba(177,209,130,0.2)"/>
    <!-- Bottom-left petal -->
    <path d="M-22.4,30.6 C-15.5,24.5 -9.5,13 -3.8,3.8 C-17,2 -28.5,9.5 -22.4,30.6Z" fill="rgba(177,209,130,0.2)"/>
    <!-- Top-left petal -->
    <path d="M-36.2,-11.8 C-28.5,-7.5 -15.5,-3.8 -3.8,-3.8 C-11.5,-15.5 -24.5,-19.2 -36.2,-11.8Z" fill="rgba(177,209,130,0.2)"/>
    <!-- Center circle -->
    <circle cx="0" cy="0" r="5" fill="#B1D182" stroke="none"/>
  </g>
</svg>
